<svg width="114" height="39" viewBox="0 0 114 39" fill="none" xmlns="http://www.w3.org/2000/svg">
<path d="M6.33388 24.04C2.92588 23.992 0.525875 22.36 0.525875 19.384C0.525875 17.032 2.25388 15.592 4.70188 15.592C6.47787 15.592 7.82188 16.216 9.26188 17.512C12.6219 16.216 14.4939 13.384 14.4939 9.88C14.4939 7.144 13.3419 5.56 11.1819 5.56C9.69388 5.56 8.82988 6.424 8.82988 7.576C8.82988 9.112 10.2219 9.88 12.5739 10.168L10.7499 14.104C5.32588 13.576 2.68588 11.08 2.68588 7.336C2.68588 3.4 5.56588 0.663999 10.9419 0.663999C17.4699 0.663999 21.0219 4.696 21.0219 10.36C21.0219 15.448 18.3819 19.24 13.5339 21.784C15.6939 23.8 17.6619 26.056 19.4859 28.408L13.9179 31.912C11.8539 28.84 9.78988 26.152 7.91788 23.944C7.38988 23.992 6.86188 24.04 6.33388 24.04ZM32.1099 6.52V31H25.4379V6.52H22.1259V1.144H36.5259V6.52H32.1099ZM46.2598 6.52V31H39.5398V6.52H35.8438V1.144H50.6758V6.52H46.2598ZM66.5611 28.552C67.9531 27.64 68.7691 26.584 68.7691 25.432C68.7691 23.944 67.5211 22.84 64.5931 22.84C61.1371 22.84 59.2651 24.232 59.2651 26.536C59.2651 29.416 62.4811 31.144 69.8251 33.592L66.9931 38.824C57.2491 36.04 52.5931 32.104 52.5931 26.632C52.5931 23.944 53.5531 21.928 55.2331 20.488C53.4091 18.904 52.5451 17.176 52.5451 15.304C52.5451 11.416 55.5211 9.304 60.8971 9.304H66.8011V6.52H49.9531V1.144H77.8411V6.52H73.4251V14.44H61.9051C59.9851 14.44 59.1211 15.112 59.1211 16.312C59.1211 16.984 59.4571 17.608 60.1291 18.184C61.5691 17.848 63.2011 17.656 64.9291 17.656C72.3211 17.656 75.3931 21.16 75.3931 25.192C75.3931 27.688 74.3851 29.752 72.0331 31.72L66.5611 28.552ZM90.4366 32.104C85.1566 26.872 81.7486 22.696 80.1646 19.816C79.1086 18.04 78.7246 16.648 78.7246 15.4C78.7246 13.384 79.9246 11.992 82.3246 11.992C83.8606 11.992 85.1086 12.664 86.2606 13.672C87.1726 12.616 87.5566 11.32 87.5566 9.688C87.5566 8.536 87.3646 7.432 86.9806 6.52H77.1406V1.144H113.285V6.52H108.869V31H102.149V20.152C100.853 20.392 99.3646 20.536 97.8286 20.536C95.1886 20.536 92.3086 20.008 89.5726 18.568C88.8526 19.048 88.0366 19.528 87.1246 19.912C89.3326 22.504 92.3086 25.288 95.3806 28.072L90.4366 32.104ZM97.8286 15.112C99.3166 15.112 100.757 14.968 102.149 14.632V6.52H93.6526C94.0366 7.672 94.2286 8.872 94.2286 10.408C94.2286 12.04 93.8446 13.432 93.2206 14.584C94.7086 14.968 96.1006 15.112 97.8286 15.112Z" fill="#FAFAFA"/>
</svg>
